<?xml version="1.0" encoding="utf-8"?>
<!-- Generator: Adobe Illustrator 27.9.1, SVG Export Plug-In . SVG Version: 6.00 Build 0)  -->
<svg version="1.1" id="Capa_1" xmlns="http://www.w3.org/2000/svg" xmlns:xlink="http://www.w3.org/1999/xlink" x="0px" y="0px"
	 viewBox="0 0 750 1334" style="enable-background:new 0 0 750 1334;" xml:space="preserve">
<style type="text/css">
	.st0{fill:#F7931E;}
	.st1{fill:#22B573;}
	.st2{fill:url(#SVGID_1_);}
	.st3{fill:url(#SVGID_00000059991657525586603710000005963136864971539092_);}
	.st4{fill:url(#SVGID_00000078762017994852314350000011663122079271688382_);}
	.st5{fill:url(#SVGID_00000158024521831966140940000006296463597319859333_);}
	.st6{fill:url(#SVGID_00000070813330164848459530000015423037867218861488_);}
	.st7{fill:url(#SVGID_00000176744472243747002560000009831127078692046228_);}
	.st8{fill:url(#SVGID_00000053527985160529760850000011239640625468536231_);}
	.st9{fill:#FFFFFF;}
</style>
<g>
	<g>
		<path class="st0" d="M210.8,759.9v-41.47h0.06l21.56,30.53l-2.75-0.61l21.45-29.92h0.11v41.47h-6.38v-27l0.44,3.25l-14.52,20.51
			h-0.11l-14.74-20.51l1.1-2.97v26.73H210.8z"/>
		<path class="st0" d="M259.75,739.94c0-2.79,0.53-5.41,1.59-7.87c1.06-2.46,2.53-4.64,4.4-6.54c1.87-1.91,4.04-3.4,6.52-4.48
			c2.47-1.08,5.12-1.62,7.95-1.62c2.79,0,5.42,0.54,7.89,1.62c2.47,1.08,4.66,2.58,6.54,4.48c1.89,1.91,3.37,4.09,4.46,6.54
			c1.08,2.46,1.62,5.08,1.62,7.87c0,2.82-0.54,5.47-1.62,7.95c-1.08,2.48-2.57,4.65-4.46,6.52c-1.89,1.87-4.07,3.33-6.54,4.37
			c-2.48,1.04-5.11,1.57-7.89,1.57c-2.86,0-5.52-0.52-7.98-1.57c-2.46-1.04-4.62-2.49-6.49-4.35c-1.87-1.85-3.34-4.01-4.4-6.49
			C260.28,745.47,259.75,742.8,259.75,739.94z M266.35,739.94c0,1.98,0.36,3.83,1.07,5.55c0.72,1.72,1.71,3.24,3,4.54
			c1.28,1.3,2.77,2.32,4.46,3.05c1.69,0.73,3.52,1.1,5.5,1.1c1.91,0,3.69-0.37,5.36-1.1c1.67-0.73,3.13-1.75,4.37-3.05
			s2.23-2.81,2.94-4.54c0.71-1.72,1.07-3.57,1.07-5.55c0-2.02-0.37-3.89-1.1-5.61c-0.73-1.72-1.72-3.24-2.97-4.56
			c-1.25-1.32-2.71-2.35-4.4-3.08c-1.69-0.73-3.5-1.1-5.45-1.1c-1.94,0-3.76,0.37-5.45,1.1s-3.16,1.76-4.43,3.08
			c-1.26,1.32-2.25,2.85-2.94,4.59S266.35,737.96,266.35,739.94z"/>
		<path class="st0" d="M344.45,761.33l-30.75-29.81l1.87,0.77l0.17,27.61h-6.49v-41.42h0.33l30.25,29.81l-1.49-0.44l-0.11-28h6.38
			v41.47H344.45z"/>
		<path class="st0" d="M355.67,719.86h26.57v6.16H362.1v10.67h17.93v6.16H362.1v10.89H383v6.16h-27.33V719.86z"/>
		<path class="st0" d="M402.42,746.92l-14.79-27.06h7.86l11.28,21.56l-1.92,0.11l11.11-21.67h7.87l-15.01,27.06v12.98h-6.38V746.92z
			"/>
		<path class="st1" d="M427.11,720.08h7.48l9.9,28.38l-1.04-0.44l7.7-19.75l2.97,8.75l-11,24.75L427.11,720.08z M446.69,720.08h6.38
			l11,27.77l-1.26-0.22l9.13-27.55h6.88l-15.62,41.58L446.69,720.08z"/>
		<path class="st1" d="M486.35,719.86h6.43v40.04h-6.43V719.86z"/>
		<path class="st1" d="M538.98,761.33l-30.75-29.81l1.87,0.77l0.17,27.61h-6.49v-41.42h0.33l30.25,29.81l-1.49-0.44l-0.11-28h6.38
			v41.47H538.98z"/>
	</g>
	<g>
		<g>
			<linearGradient id="SVGID_1_" gradientUnits="userSpaceOnUse" x1="335.0321" y1="559.6188" x2="369.6183" y2="640.4589">
				<stop  offset="0" style="stop-color:#F7931E"/>
				<stop  offset="1" style="stop-color:#F7931E"/>
			</linearGradient>
			<polygon class="st2" points="349.84,621.13 362.18,614.25 362.18,596.17 349.84,596.17 			"/>
			
				<linearGradient id="SVGID_00000078006261857578057700000000033245049857823659_" gradientUnits="userSpaceOnUse" x1="351.4192" y1="552.6076" x2="386.0055" y2="633.4481">
				<stop  offset="0" style="stop-color:#F7931E"/>
				<stop  offset="1" style="stop-color:#F7931E"/>
			</linearGradient>
			<polygon style="fill:url(#SVGID_00000078006261857578057700000000033245049857823659_);" points="365.44,612.13 373.8,607.44 
				377.77,612.13 377.77,587.45 365.44,587.45 			"/>
			
				<linearGradient id="SVGID_00000041272522158227418450000002492239723876207773_" gradientUnits="userSpaceOnUse" x1="365.4326" y1="546.612" x2="400.019" y2="627.4525">
				<stop  offset="0" style="stop-color:#F7931E"/>
				<stop  offset="1" style="stop-color:#F7931E"/>
			</linearGradient>
			<polygon style="fill:url(#SVGID_00000041272522158227418450000002492239723876207773_);" points="381.57,616.5 383.64,618.91 
				393.9,612.78 393.9,580.99 381.57,580.99 			"/>
			
				<linearGradient id="SVGID_00000047744255998820298950000017461052463092540806_" gradientUnits="userSpaceOnUse" x1="348.2882" y1="553.9471" x2="382.8746" y2="634.7878">
				<stop  offset="0" style="stop-color:#F7931E"/>
				<stop  offset="1" style="stop-color:#F7931E"/>
			</linearGradient>
			<path style="fill:url(#SVGID_00000047744255998820298950000017461052463092540806_);" d="M412.98,602.97v-30.26
				c0-6.54-5.32-11.87-11.87-11.87h-41.53c-14.43,0-26.17,11.74-26.17,26.17v45.61l-5.63,3.14v5.12l42.87-19.29l11.05,14.12
				l29.39-18.49l3,4.05l11.24-19.65L412.98,602.97z M383,621.9l-9.45-11.67l-32.52,18.13v-41.36c0-10.22,8.32-18.54,18.54-18.54
				h41.53c2.34,0,4.24,1.9,4.24,4.24v31.09l-3.93,0.43l3.47,4.43L383,621.9z"/>
		</g>
		<g>
			<g>
				
					<linearGradient id="SVGID_00000105412803283279610400000012399974958846869695_" gradientUnits="userSpaceOnUse" x1="325.0368" y1="662.7827" x2="387.0631" y2="662.7827">
					<stop  offset="0" style="stop-color:#22B573"/>
					<stop  offset="1" style="stop-color:#96E148"/>
				</linearGradient>
				<polygon style="fill:url(#SVGID_00000105412803283279610400000012399974958846869695_);" points="349.63,676.64 333.81,644.08 
					325.04,644.08 343.21,681.48 387.06,671.42 				"/>
				
					<linearGradient id="SVGID_00000158008500693222794410000012650840425535687339_" gradientUnits="userSpaceOnUse" x1="333.0909" y1="655.33" x2="395.1171" y2="655.33">
					<stop  offset="0" style="stop-color:#22B573"/>
					<stop  offset="1" style="stop-color:#96E148"/>
				</linearGradient>
				<polygon style="fill:url(#SVGID_00000158008500693222794410000012650840425535687339_);" points="357.69,669.18 341.87,636.63 
					333.09,636.63 351.26,674.03 395.12,669.18 				"/>
				
					<linearGradient id="SVGID_00000179628832151074222750000003823229363806933165_" gradientUnits="userSpaceOnUse" x1="341.1447" y1="647.8773" x2="442.5401" y2="647.8773">
					<stop  offset="5.327789e-09" style="stop-color:#82C392"/>
					<stop  offset="0.1736" style="stop-color:#59BD85"/>
					<stop  offset="0.4246" style="stop-color:#22B573"/>
					<stop  offset="1" style="stop-color:#03A85F"/>
				</linearGradient>
				<path style="fill:url(#SVGID_00000179628832151074222750000003823229363806933165_);" d="M440.46,662.42h-27.37h-10.33
					c-1.15,0-2.08-0.93-2.08-2.08s0.93-2.08,2.08-2.08h9.69h17.2c1.15,0,2.08-0.93,2.08-2.08c0-1.15-0.93-2.08-2.08-2.08h-17.84
					h-1.27c-1.15,0-2.08-0.93-2.08-2.08s0.93-2.08,2.08-2.08h0.64h3.94c1.15,0,2.08-0.93,2.08-2.08s-0.93-2.08-2.08-2.08h-4.57
					h-19.63h-3.6c-1.15,0-2.08-0.93-2.08-2.08s0.93-2.08,2.08-2.08h1.52h15.86h14.53c1.15,0,2.08-0.93,2.08-2.08
					s-0.93-2.08-2.08-2.08h-15.16h-4.45c-1.15,0-2.08-0.93-2.08-2.08c0-1.15,0.93-2.08,2.08-2.08h9.03h20.02
					c1.15,0,2.08-0.93,2.08-2.08l0,0c0-1.15-0.93-2.08-2.08-2.08h-20.65h-13.95h-52.91l18.17,37.4h36.82h17.59h26.74
					c1.15,0,2.08-0.93,2.08-2.08C442.54,663.35,441.61,662.42,440.46,662.42z"/>
			</g>
			<g>
				<path class="st9" d="M372.98,653.05c-0.33-0.78-0.83-1.42-1.49-1.91c-0.66-0.49-1.63-0.95-2.9-1.38
					c-2.48-0.78-4.44-1.66-5.89-2.62c-1.45-0.96-2.55-2.32-3.29-4.07c-0.69-1.62-0.74-2.96-0.14-4c0.6-1.04,1.73-1.65,3.42-1.84
					l-1.33-3.12h2.31l1.34,3.15c1.81,0.25,3.45,0.96,4.92,2.13c1.47,1.17,2.59,2.69,3.37,4.55l-0.01,0.07h-4.13
					c-0.49-1.14-1.1-2.02-1.83-2.64c-0.73-0.62-1.51-0.93-2.32-0.93c-0.83,0-1.35,0.24-1.55,0.72c-0.2,0.48-0.13,1.12,0.2,1.91
					c0.32,0.75,0.8,1.37,1.43,1.83c0.63,0.47,1.62,0.93,2.96,1.38c2.5,0.84,4.46,1.74,5.9,2.7c1.44,0.96,2.52,2.3,3.26,4.02
					c0.72,1.68,0.77,3.03,0.17,4.03c-0.61,1-1.76,1.6-3.46,1.78l1.22,2.87h-2.31l-1.22-2.86c-1.89-0.18-3.65-0.82-5.3-1.92
					c-1.65-1.1-2.9-2.71-3.77-4.84l0-0.07h4.13c0.55,1.3,1.25,2.22,2.08,2.78c0.83,0.56,1.71,0.84,2.63,0.84
					c0.88,0,1.45-0.23,1.72-0.7C373.35,654.47,373.31,653.84,372.98,653.05z"/>
			</g>
		</g>
	</g>
</g>
</svg>
