<?xml version="1.0" encoding="UTF-8"?>
<svg id="Capa_1" xmlns="http://www.w3.org/2000/svg" viewBox="0 0 416 52.75">
  <path
    d="m.22,52.62V.13h.07l27.29,38.63-3.48-.77L51.24.13h.14v52.49h-8.07V18.44l.56,4.11-18.38,25.96h-.14L6.69,22.55l1.39-3.76v33.83H.22Z"
    style="fill:#f7931e; stroke-width:0px;" />
  <path
    d="m62.17,26.44c0-3.53.67-6.84,2.02-9.95,1.35-3.11,3.2-5.87,5.57-8.28,2.37-2.41,5.12-4.3,8.25-5.67s6.48-2.05,10.06-2.05,6.86.69,9.99,2.05,5.89,3.26,8.28,5.67c2.39,2.41,4.27,5.17,5.64,8.28,1.37,3.11,2.05,6.43,2.05,9.95s-.69,6.93-2.05,10.06c-1.37,3.13-3.25,5.88-5.64,8.25-2.39,2.37-5.15,4.21-8.28,5.53-3.13,1.32-6.46,1.98-9.99,1.98s-6.98-.66-10.09-1.98c-3.11-1.32-5.85-3.16-8.21-5.5-2.37-2.34-4.22-5.08-5.57-8.21-1.35-3.13-2.02-6.51-2.02-10.13Zm8.35,0c0,2.51.45,4.85,1.36,7.03.91,2.18,2.17,4.1,3.79,5.74,1.62,1.65,3.5,2.94,5.64,3.86,2.13.93,4.45,1.39,6.96,1.39s4.67-.46,6.79-1.39c2.11-.93,3.96-2.22,5.53-3.86,1.58-1.65,2.82-3.56,3.72-5.74.91-2.18,1.36-4.52,1.36-7.03s-.46-4.92-1.39-7.1c-.93-2.18-2.18-4.11-3.76-5.78-1.58-1.67-3.44-2.97-5.57-3.9-2.14-.93-4.43-1.39-6.89-1.39s-4.76.46-6.89,1.39-4,2.23-5.6,3.9c-1.6,1.67-2.84,3.61-3.72,5.81-.88,2.21-1.32,4.56-1.32,7.07Z"
    style="fill:#f7931e; stroke-width:0px;" />
  <path
    d="m169.37,53.49l-38.91-37.73,2.37.97.21,34.94h-8.21V-.74h.42l38.29,37.73-1.88-.56-.14-35.43h8.07v52.49h-.21Z"
    style="fill:#f7931e; stroke-width:0px;" />
  <path d="m183.57,1.04h33.62v7.8h-25.48v13.5h22.69v7.8h-22.69v13.78h26.45v7.8h-34.6V1.04Z"
    style="fill:#f7931e; stroke-width:0px;" />
  <path
    d="m242.74,35.29L224.01,1.04h9.95l14.27,27.29-2.44.14,14.06-27.43h9.95l-19,34.25v16.43h-8.07v-16.43Z"
    style="fill:#f7931e; stroke-width:0px;" />
  <path
    d="m273.99,0h9.47l12.53,35.92-1.32-.56,9.75-24.99,3.76,11.07-13.92,31.32L273.99,0ZM298.77,0h8.07l13.92,35.15-1.6-.28L330.72,0h8.7l-19.77,52.62L298.77,0Z"
    style="fill:#22b573; stroke-width:0px;" />
  <path d="m348.96,1.04h8.14v50.68h-8.14V1.04Z" style="fill:#22b573; stroke-width:0px;" />
  <path
    d="m415.57,53.49l-38.91-37.73,2.37.97.21,34.94h-8.21V-.74h.42l38.29,37.73-1.88-.56-.14-35.43h8.07v52.49h-.21Z"
    style="fill:#22b573; stroke-width:0px;" />
</svg>