<?xml version="1.0" encoding="utf-8"?>
<!-- Generator: Adobe Illustrator 27.9.3, SVG Export Plug-In . SVG Version: 9.03 Build 53313)  -->
<svg version="1.1" id="Capa_1" xmlns="http://www.w3.org/2000/svg"
	xmlns:xlink="http://www.w3.org/1999/xlink" x="0px" y="0px"
	viewBox="0 0 432 432" style="enable-background:new 0 0 432 432;" xml:space="preserve">
<style type="text/css">
	.st0{fill:#F7931E;}
	.st1{fill:#22B573;}
</style>
<g>
	<path class="st0" d="M8.22,241.06v-52.49h0.07l27.29,38.63l-3.48-0.77l27.15-37.87h0.14v52.49h-8.07v-34.18l0.56,4.11l-18.38,25.96
		h-0.14l-18.66-25.96l1.39-3.76v33.83H8.22z"/>
	<path class="st0" d="M70.17,215.79c0-3.53,0.67-6.84,2.02-9.95c1.35-3.11,3.2-5.87,5.57-8.28c2.37-2.41,5.12-4.3,8.25-5.67
		s6.48-2.05,10.06-2.05c3.53,0,6.86,0.69,9.99,2.05s5.89,3.26,8.28,5.67c2.39,2.41,4.27,5.17,5.64,8.28
		c1.37,3.11,2.05,6.43,2.05,9.95c0,3.57-0.69,6.93-2.05,10.06c-1.37,3.13-3.25,5.88-5.64,8.25c-2.39,2.37-5.15,4.21-8.28,5.53
		c-3.13,1.32-6.46,1.98-9.99,1.98c-3.62,0-6.98-0.66-10.09-1.98c-3.11-1.32-5.85-3.16-8.21-5.5c-2.37-2.34-4.22-5.08-5.57-8.21
		C70.84,222.79,70.17,219.41,70.17,215.79z M78.52,215.79c0,2.51,0.45,4.85,1.36,7.03c0.91,2.18,2.17,4.1,3.79,5.74
		c1.62,1.65,3.5,2.94,5.64,3.86c2.13,0.93,4.45,1.39,6.96,1.39c2.41,0,4.67-0.46,6.79-1.39c2.11-0.93,3.96-2.22,5.53-3.86
		c1.58-1.65,2.82-3.56,3.72-5.74c0.91-2.18,1.36-4.52,1.36-7.03c0-2.55-0.46-4.92-1.39-7.1c-0.93-2.18-2.18-4.11-3.76-5.78
		c-1.58-1.67-3.44-2.97-5.57-3.9c-2.14-0.93-4.43-1.39-6.89-1.39c-2.46,0-4.76,0.46-6.89,1.39c-2.13,0.93-4,2.23-5.6,3.9
		c-1.6,1.67-2.84,3.61-3.72,5.81C78.96,210.93,78.52,213.29,78.52,215.79z"/>
	<path class="st0" d="M177.37,242.87l-38.91-37.73l2.37,0.97l0.21,34.94h-8.21v-52.42h0.42l38.29,37.73l-1.88-0.56l-0.14-35.43h8.07
		v52.49H177.37z"/>
	<path class="st0" d="M191.57,190.38h33.62v7.8h-25.48v13.5h22.69v7.8h-22.69v13.78h26.45v7.8h-34.6V190.38z"/>
	<path class="st0" d="M250.74,224.63l-18.73-34.25h9.95l14.27,27.29l-2.44,0.14l14.06-27.43h9.95l-19,34.25v16.43h-8.07V224.63z"/>
	<path class="st1" d="M281.99,190.66h9.47l12.53,35.92l-1.32-0.56l9.75-24.99l3.76,11.07l-13.92,31.32L281.99,190.66z
		 M306.77,190.66h8.07l13.92,35.15l-1.6-0.28l11.56-34.87h8.7l-19.77,52.62L306.77,190.66z"/>
	<path class="st1" d="M356.96,190.38h8.14v50.68h-8.14V190.38z"/>
	<path class="st1" d="M423.57,242.87l-38.91-37.73l2.37,0.97l0.21,34.94h-8.21v-52.42h0.42l38.29,37.73l-1.88-0.56l-0.14-35.43h8.07
		v52.49H423.57z"/>
</g>
<g>
</g>
<g>
</g>
<g>
</g>
<g>
</g>
<g>
</g>
<g>
</g>
<g>
</g>
<g>
</g>
<g>
</g>
<g>
</g>
<g>
</g>
<g>
</g>
<g>
</g>
<g>
</g>
<g>
</g>
</svg>